<?xml version="1.0" encoding="UTF-8" standalone="no"?>
<!DOCTYPE svg PUBLIC "-//W3C//DTD SVG 1.1//EN" "http://www.w3.org/Graphics/SVG/1.1/DTD/svg11.dtd">
<svg xmlns="http://www.w3.org/2000/svg" version="1.1" viewBox="0 0 95 95">
<g stroke-width="1.90" fill="none" stroke-linecap="butt">
<path stroke="#013d9a" vector-effect="non-scaling-stroke" d="
  M 41.25 27.79
  L 42.00 27.54"
/>
<path stroke="#013d9a" vector-effect="non-scaling-stroke" d="
  M 46.25 94.04
  L 46.25 94.71"
/>
<path stroke="#013d9a" vector-effect="non-scaling-stroke" d="
  M 42.25 90.79
  L 42.44 90.67
  L 42.45 90.55"
/>
</g>
<path fill="#013d9a" d="
  M 34.4884 20.6198
  L 34.1702 20.7516
  L 33.8520 20.6198
  L 31.4902 18.2580
  L 31.3584 17.9398
  L 31.4902 17.6216
  L 46.5516 2.5602
  L 46.8698 2.4284
  L 47.1880 2.5602
  L 49.5498 4.9220
  L 49.6816 5.2402
  L 49.5498 5.5584
  L 34.4884 20.6198
  Z
  M 47.17 5.72
  L 47.49 5.17
  L 46.86 5.12
  L 46.10 5.46
  L 45.22 6.24
  L 44.48 7.24
  L 44.35 7.85
  L 44.35 7.85
  L 45.25 7.45
  L 47.17 5.72
  Z
  M 38.9620 13.2869
  L 39.7091 13.1045
  L 40.8902 12.0877
  L 41.8135 10.8320
  L 41.9380 10.0731
  L 41.1909 10.2555
  L 40.0098 11.2723
  L 39.0865 12.5280
  L 38.9620 13.2869
  Z
  M 36.9627 15.3019
  L 36.6795 15.2372
  L 36.2030 15.4042
  L 34.9787 16.3007
  L 34.0071 17.4663
  L 33.8105 17.9313
  L 33.8573 18.2181
  L 34.1405 18.2828
  L 34.6170 18.1158
  L 35.8413 17.2193
  L 36.8129 16.0537
  L 37.0095 15.5887
  L 36.9627 15.3019
  Z"
/>
<path fill="#013d9a" d="
  M 51.54 7.25
  L 36.96 21.75
  L 36.43 22.37
  L 35.94 22.55
  L 35.94 22.55
  L 35.57 22.39
  L 35.22 21.95
  L 35.15 21.54
  L 35.36 21.16
  L 42.51 14.15
  L 50.00 6.50
  L 50.44 6.15
  L 50.82 6.09
  L 51.23 6.43
  L 51.54 7.25
  Z"
/>
<path fill="#013d9a" d="
  M 52.00 7.96
  L 53.05 8.46
  L 53.86 9.16
  L 54.62 10.52
  L 54.63 10.96
  L 54.39 11.35
  L 51.21 14.50
  L 50.66 15.14
  L 50.08 15.39
  L 50.08 15.39
  L 50.08 15.39
  L 49.56 15.29
  L 49.02 14.90
  L 47.88 13.28
  L 47.78 12.53
  L 48.18 11.80
  L 52.00 7.96
  Z
  M 51.75 12.09
  L 52.46 11.28
  L 52.53 10.80
  L 52.52 10.73
  L 52.31 10.49
  L 51.97 10.48
  L 50.61 11.38
  L 49.67 12.79
  L 49.67 13.14
  L 49.93 13.37
  L 49.93 13.37
  L 49.98 13.38
  L 50.62 13.30
  L 51.13 12.78
  L 51.75 12.09
  Z"
/>
<path fill="#013d9a" d="
  M 55.00 14.46
  L 52.12 17.16
  L 51.72 17.34
  L 51.32 17.24
  L 50.92 16.87
  L 50.80 16.50
  L 51.04 16.02
  L 51.75 15.54
  L 55.25 12.00
  L 55.72 11.62
  L 56.11 11.55
  L 56.11 11.55
  L 56.58 12.20
  L 56.58 12.63
  L 56.34 13.04
  L 55.00 14.46
  Z"
/>
<path fill="#013d9a" d="
  M 41.25 27.79
  L 42.00 27.54
  L 42.23 27.87
  L 42.33 27.93
  L 42.68 27.94
  L 43.07 27.69
  L 55.54 15.00
  L 56.87 13.87
  L 57.48 13.63
  L 58.06 13.61
  L 58.06 13.61
  L 58.06 13.61
  L 58.06 13.61
  L 58.61 13.81
  L 59.13 14.24
  L 60.06 15.79
  L 60.11 16.22
  L 59.90 16.60
  L 45.36 31.14
  L 44.97 31.33
  L 44.61 31.20
  L 44.61 31.20
  L 44.61 31.20
  L 41.25 27.79
  Z
  M 57.9751 15.6214
  L 57.2174 15.7843
  L 55.9750 16.7706
  L 54.9757 18.0026
  L 54.8049 18.7586
  L 55.5626 18.5957
  L 56.8050 17.6094
  L 57.8043 16.3774
  L 57.9751 15.6214
  Z
  M 52.8056 20.9435
  L 52.0536 21.0968
  L 50.7898 22.0545
  L 49.7546 23.2556
  L 49.5544 23.9965
  L 50.3064 23.8432
  L 51.5702 22.8855
  L 52.6054 21.6844
  L 52.8056 20.9435
  Z
  M 47.56 26.56
  L 47.55 26.13
  L 47.55 26.13
  L 47.05 26.16
  L 46.04 26.70
  L 45.36 27.26
  L 44.81 27.98
  L 44.56 28.57
  L 44.60 28.96
  L 44.60 28.96
  L 45.19 29.19
  L 45.64 29.14
  L 46.22 28.86
  L 46.73 28.34
  L 47.56 26.56
  Z"
/>
<rect fill="#013d9a" x="-0.82" y="-11.11" transform="translate(54.04,25.17) rotate(44.9)" width="1.64" height="22.22" rx="0.72"/>
<path fill="#013d9a" d="
  M 40.00 25.96
  L 38.93 25.71
  L 38.44 25.25
  L 37.77 24.55
  L 37.34 24.12
  L 37.13 23.65
  L 37.13 23.65
  L 37.13 23.65
  L 37.15 23.00
  L 37.50 22.29
  L 41.26 18.84
  L 41.86 18.59
  L 42.43 18.80
  L 44.05 20.42
  L 44.34 21.16
  L 44.01 21.93
  L 40.00 25.96
  Z
  M 40.23 21.90
  L 39.51 22.59
  L 39.29 23.44
  L 39.39 23.78
  L 39.76 23.72
  L 40.95 22.87
  L 42.04 21.44
  L 42.07 21.08
  L 41.83 20.84
  L 41.78 20.82
  L 41.26 20.85
  L 40.87 21.23
  L 40.23 21.90
  Z"
/>
<path fill="#013d9a" d="
  M 42.00 27.54
  L 41.25 27.79
  L 40.63 27.52
  L 40.54 26.75
  L 44.96 22.42
  L 45.36 22.20
  L 45.78 22.23
  L 46.04 22.45
  L 46.04 22.45
  L 46.03 23.02
  L 45.59 23.77
  L 43.28 26.23
  L 42.00 27.54
  Z"
/>
<path fill="#004098" d="
  M 62.16 28.71
  L 63.39 27.38
  L 65.53 25.08
  L 67.28 23.59
  L 67.69 23.47
  L 68.06 23.64
  L 72.17 27.89
  L 72.38 28.44
  L 72.14 28.99
  L 52.48 48.65
  L 52.28 49.10
  L 52.46 49.54
  L 52.46 49.54
  L 56.81 53.85
  L 57.18 54.00
  L 57.55 53.84
  L 77.44 34.06
  L 77.94 33.85
  L 78.43 34.05
  L 92.98 48.61
  L 93.22 49.19
  L 92.99 49.77
  L 68.21 74.66
  L 67.63 74.91
  L 67.04 74.67
  L 67.04 74.67
  L 62.84 70.37
  L 62.70 70.01
  L 62.85 69.64
  L 82.80 49.58
  L 82.99 49.12
  L 82.80 48.67
  L 82.80 48.67
  L 78.68 44.66
  L 78.02 44.39
  L 77.37 44.66
  L 58.09 64.03
  L 57.25 64.39
  L 56.41 64.05
  L 47.17 54.90
  L 46.81 54.76
  L 46.44 54.91
  L 26.74 74.68
  L 26.15 74.93
  L 25.57 74.70
  L 0.69 49.81
  L 0.43 49.19
  L 0.68 48.57
  L 0.68 48.57
  L 25.35 23.78
  L 26.00 23.51
  L 26.65 23.78
  L 41.16 38.40
  L 41.31 38.76
  L 41.16 39.11
  L 31.62 48.65
  L 31.24 48.82
  L 30.87 48.68
  L 26.50 44.26
  L 26.45 44.21
  L 26.29 43.59
  L 26.65 43.05
  L 28.73 41.30
  L 30.59 38.97
  L 30.69 38.52
  L 30.48 38.07
  L 26.92 34.17
  L 26.24 33.83
  L 25.56 34.07
  L 25.55 34.08
  L 10.87 48.75
  L 10.87 48.75
  L 10.66 49.28
  L 10.90 49.82
  L 25.39 64.28
  L 25.98 64.54
  L 26.57 64.31
  L 26.57 64.31
  L 62.16 28.71
  Z"
/>
<path fill="#013d9a" d="
  M 49.4454 67.3566
  L 49.6124 67.7597
  L 49.4454 68.1627
  L 34.6527 82.9554
  L 34.2497 83.1224
  L 33.8466 82.9554
  L 31.6546 80.7634
  L 31.4876 80.3603
  L 31.6546 79.9573
  L 46.4473 65.1646
  L 46.8503 64.9976
  L 47.2534 65.1646
  L 49.4454 67.3566
  Z
  M 44.2070 70.5485
  L 44.9446 70.3446
  L 46.1656 69.3121
  L 47.1550 68.0557
  L 47.3330 67.3115
  L 46.5954 67.5154
  L 45.3744 68.5479
  L 44.3850 69.8043
  L 44.2070 70.5485
  Z
  M 41.37 73.37
  L 39.85 74.12
  L 39.42 74.56
  L 39.21 75.05
  L 39.21 75.05
  L 39.18 75.25
  L 39.29 75.68
  L 39.69 75.50
  L 41.62 73.73
  L 41.95 73.29
  L 41.37 73.37
  Z
  M 36.63 77.89
  L 35.79 78.14
  L 35.09 78.68
  L 34.14 79.91
  L 34.01 80.59
  L 34.01 80.59
  L 34.50 80.75
  L 35.33 80.50
  L 35.94 79.88
  L 36.65 78.50
  L 36.73 77.91
  L 36.73 77.91
  L 36.63 77.89
  Z"
/>
<path fill="#013d9a" d="
  M 50.50 70.71
  L 36.46 85.00
  L 35.75 84.94
  L 35.32 84.66
  L 35.19 84.25
  L 35.61 83.40
  L 49.36 69.76
  L 49.64 69.39
  L 50.11 68.83
  L 50.50 68.66
  L 51.17 69.13
  L 51.36 69.59
  L 51.29 70.04
  L 51.24 70.13
  L 50.50 70.71
  Z"
/>
<path fill="#013d9a" d="
  M 50.96 77.25
  L 50.59 77.72
  L 50.17 77.92
  L 50.17 77.92
  L 49.69 77.85
  L 49.17 77.48
  L 48.00 75.86
  L 47.85 75.11
  L 48.17 74.41
  L 51.04 71.25
  L 51.70 70.61
  L 52.20 70.61
  L 52.79 70.89
  L 54.21 72.30
  L 54.49 73.14
  L 54.14 73.96
  L 50.96 77.25
  Z
  M 52.5685 72.8234
  L 51.8330 72.9409
  L 50.6447 73.8369
  L 49.6997 74.9867
  L 49.5515 75.7166
  L 50.2870 75.5991
  L 51.4753 74.7031
  L 52.4203 73.5533
  L 52.5685 72.8234
  Z"
/>
<path fill="#013d9a" d="
  M 56.00 75.96
  L 52.54 79.33
  L 52.12 79.60
  L 51.68 79.66
  L 51.10 79.51
  L 50.82 79.25
  L 50.82 79.25
  L 50.82 79.25
  L 50.91 78.74
  L 51.50 78.04
  L 55.27 74.46
  L 55.67 74.21
  L 56.04 74.21
  L 56.48 74.46
  L 56.69 74.77
  L 56.58 75.31
  L 56.00 75.96
  Z"
/>
<path fill="#013d9a" d="
  M 46.25 94.04
  L 46.25 94.71
  L 44.81 93.97
  L 43.63 92.98
  L 43.63 92.98
  L 42.85 91.97
  L 42.25 90.79
  L 42.44 90.67
  L 42.45 90.55
  L 56.86 76.21
  L 57.74 76.24
  L 58.53 76.47
  L 58.53 76.47
  L 59.45 77.10
  L 60.21 78.11
  L 60.28 78.53
  L 60.08 78.92
  L 45.82 93.32
  L 45.61 93.75
  L 46.25 94.04
  Z
  M 55.16 80.99
  L 57.14 79.51
  L 57.58 79.02
  L 57.66 78.68
  L 57.66 78.68
  L 57.26 78.50
  L 56.80 78.56
  L 56.38 78.83
  L 55.19 80.50
  L 55.04 80.89
  L 55.03 81.04
  L 55.16 80.99
  Z
  M 49.6576 86.5024
  L 50.4121 86.3302
  L 51.6223 85.3260
  L 52.5793 84.0782
  L 52.7224 83.3176
  L 51.9679 83.4898
  L 50.7577 84.4940
  L 49.8007 85.7418
  L 49.6576 86.5024
  Z
  M 47.03 88.75
  L 45.39 89.90
  L 44.89 90.53
  L 44.62 91.20
  L 44.66 91.54
  L 45.03 91.51
  L 46.37 90.72
  L 47.25 89.67
  L 47.48 89.14
  L 47.50 88.66
  L 47.03 88.75
  Z"
/>
<path fill="#013d9a" d="
  M 47.44 95.00
  L 46.44 95.00
  L 46.44 94.81
  L 46.25 94.71
  L 46.25 94.04
  L 60.70 79.92
  L 61.12 79.68
  L 61.54 79.69
  L 62.06 80.13
  L 61.97 80.74
  L 61.31 81.56
  L 47.44 95.00
  Z"
/>
<path fill="#013d9a" d="
  M 40.00 88.46
  L 39.02 88.03
  L 38.18 87.44
  L 37.40 86.57
  L 36.79 85.50
  L 41.15 81.37
  L 41.57 81.11
  L 41.99 81.09
  L 42.43 81.27
  L 43.17 81.90
  L 43.65 82.36
  L 43.89 82.51
  L 44.17 82.76
  L 44.17 82.76
  L 44.20 83.47
  L 43.59 84.61
  L 40.63 87.83
  L 40.63 87.83
  L 40.00 88.46
  Z
  M 42.06 84.06
  L 42.30 83.51
  L 42.27 83.20
  L 42.27 83.20
  L 41.69 83.19
  L 40.34 83.81
  L 39.48 84.72
  L 39.31 85.06
  L 39.17 85.62
  L 39.27 86.01
  L 39.75 86.25
  L 39.77 86.25
  L 39.77 86.25
  L 39.77 86.25
  L 40.29 86.16
  L 40.84 85.77
  L 42.06 84.06
  Z"
/>
<path fill="#013d9a" d="
  M 42.45 90.55
  L 42.44 90.67
  L 42.25 90.79
  L 41.54 90.57
  L 41.01 90.18
  L 41.01 90.18
  L 40.54 89.25
  L 44.62 85.07
  L 45.44 84.61
  L 45.99 84.64
  L 46.27 84.82
  L 46.27 84.82
  L 46.27 84.82
  L 46.31 85.17
  L 46.14 85.61
  L 45.28 86.54
  L 44.31 87.31
  L 43.53 88.22
  L 42.89 89.31
  L 42.45 90.55
  Z"
/>
</svg>
